<svg width="54" height="54" viewBox="0 0 54 54" fill="none" xmlns="http://www.w3.org/2000/svg">
<g clip-path="url(#clip0_305_405)">
<path d="M31.8991 31.9069H3.68119V4.91492H31.8991V15.2335L34.3543 15.7574V4.57483C35.0862 4.14973 35.5803 3.3673 35.5803 2.46194C35.5803 1.10734 34.4819 0.0078125 33.1261 0.0078125H2.45413C1.09838 0.0078125 0 1.10734 0 2.46194C0 3.36845 0.49634 4.14973 1.22706 4.57483V33.1339C1.22706 33.8107 1.77626 34.361 2.45298 34.361H10.0141L5.60221 50.9034C5.25409 52.212 6.03192 53.5586 7.3417 53.9079C7.55426 53.9641 7.76681 53.9917 7.97592 53.9917C9.05936 53.9917 10.0532 53.2668 10.3462 52.1695L15.0959 34.361H20.4844L25.2341 52.1695C25.5271 53.2668 26.5186 53.9917 27.6032 53.9917C27.8134 53.9917 28.0249 53.9653 28.2386 53.9079C29.5483 53.5586 30.325 52.212 29.978 50.9045L25.5661 34.3622H33.1273C33.8052 34.3622 34.3532 33.8118 34.3532 33.1351V25.7968L31.8979 25.2718V31.9069H31.8991Z" fill="#F3AD39"/>
<path d="M42.336 17.8086C44.7395 17.8086 46.6939 15.8577 46.6939 13.453C46.6939 11.0459 44.7395 9.09619 42.336 9.09619C39.9335 9.09619 37.9803 11.0448 37.9803 13.453C37.9803 15.8577 39.9335 17.8086 42.336 17.8086Z" fill="#F3AD39"/>
<path d="M53.8334 32.2564L49.3273 20.5924C48.9654 19.6468 48.0543 19.023 47.0409 19.023H44.6465C43.9733 19.023 43.385 19.3171 42.9461 19.7594L44.0881 28.1455L42.336 29.6311L40.5862 28.1455L41.7282 19.7594C41.2859 19.3171 40.6988 19.023 40.0255 19.023H37.8919L23.8244 16.0173C22.4996 15.7347 21.1956 16.5803 20.9118 17.905C20.6292 19.2309 21.4736 20.535 22.7995 20.8176L37.1187 23.8761C37.2669 23.9082 37.4197 23.9255 37.5714 23.9289V35.2793L36.6327 51.3931C36.5569 52.7454 37.5875 53.9058 38.9421 53.9851C38.9892 53.9885 39.0386 53.9897 39.0857 53.9897C40.3759 53.9897 41.4559 52.9832 41.5341 51.678L42.3395 37.8575L43.1437 51.678C43.2195 52.9832 44.303 53.9897 45.5933 53.9897C45.6404 53.9897 45.6898 53.9885 45.7369 53.9851C47.0903 53.9058 48.1221 52.7454 48.0439 51.3931L47.1064 35.2793V28.4454L49.2618 34.0246C49.7501 35.2907 51.1736 35.9158 52.4363 35.4298C53.6944 34.9415 54.3229 33.5214 53.8334 32.2564Z" fill="#F3AD39"/>
<path d="M5.52173 17.4927V27.9216C5.52173 28.5995 6.07092 29.1486 6.74764 29.1486C7.42666 29.1486 7.97471 28.5983 7.97471 27.9216V17.4927C7.97471 16.816 7.42552 16.2656 6.74764 16.2656C6.06977 16.2656 5.52173 16.8148 5.52173 17.4927Z" fill="#F3AD39"/>
<path d="M11.0413 8.90284V27.92C11.0413 28.5991 11.5905 29.1471 12.2683 29.1471C12.9462 29.1471 13.4942 28.5979 13.4942 27.92V8.90284C13.4942 8.22497 12.945 7.67578 12.2683 7.67578C11.5905 7.67578 11.0413 8.22497 11.0413 8.90284Z" fill="#F3AD39"/>
<path d="M16.5631 13.8091V27.9203C16.5631 28.5993 17.1123 29.1474 17.789 29.1474C18.468 29.1474 19.0161 28.5982 19.0161 27.9203V13.8091C19.0161 13.1312 18.4669 12.582 17.789 12.582C17.1123 12.582 16.5631 13.1312 16.5631 13.8091Z" fill="#F3AD39"/>
</g>
<defs>
<clipPath id="clip0_305_405">
<rect width="54" height="54" fill="white"/>
</clipPath>
</defs>
</svg>
