<svg width="694" height="1388" viewBox="0 0 694 1388" fill="none" xmlns="http://www.w3.org/2000/svg">
<path d="M694 1388C602.863 1388 512.618 1370.05 428.418 1335.17C344.218 1300.3 267.712 1249.18 203.268 1184.73C138.824 1120.29 87.7043 1043.78 52.8276 959.582C17.9508 875.382 -3.43194e-05 785.137 -3.03357e-05 694C-2.6352e-05 602.863 17.9508 512.618 52.8276 428.418C87.7043 344.218 138.824 267.712 203.268 203.268C267.712 138.824 344.218 87.7043 428.418 52.8275C512.618 17.9508 602.863 -4.22869e-05 694 -3.03357e-05L694 694L694 1388Z" fill="#F3AD39" fill-opacity="0.1"/>
</svg>
