<svg width="47" height="47" viewBox="0 0 47 47" fill="none" xmlns="http://www.w3.org/2000/svg">
<path d="M7.371 19.2271H2.137C0.957 19.2271 0 20.1841 0 21.3641V44.864C0 46.0431 0.957 47.0001 2.137 47.0001H7.371C8.551 47.0001 9.507 46.0431 9.507 44.864V21.3641C9.507 20.1841 8.551 19.2271 7.371 19.2271Z" fill="#F3AD39"/>
<path d="M19.869 25.6348H14.635C13.454 25.6348 12.498 26.5918 12.498 27.7718V44.8618C12.498 46.0428 13.454 46.9988 14.635 46.9988H19.869C21.049 46.9988 22.005 46.0418 22.005 44.8618V27.7718C22.005 26.5918 21.049 25.6348 19.869 25.6348Z" fill="#F3AD39"/>
<path d="M32.365 25.6348H27.131C25.951 25.6348 24.995 26.5918 24.995 27.7718V44.8618C24.995 46.0428 25.951 46.9988 27.131 46.9988H32.365C33.546 46.9988 34.502 46.0418 34.502 44.8618V27.7718C34.502 26.5918 33.546 25.6348 32.365 25.6348Z" fill="#F3AD39"/>
<path d="M44.863 19.2271H39.629C38.449 19.2271 37.493 20.1841 37.493 21.3641V44.864C37.493 46.0441 38.449 47.0001 39.629 47.0001H44.863C46.043 47.0001 47 46.042 47 44.864V21.3641C47 20.1841 46.043 19.2271 44.863 19.2271Z" fill="#F3AD39"/>
<path d="M24.123 12.8701V16.7161C25.287 16.6391 26.514 16.0931 26.514 14.8121C26.514 13.4901 25.169 13.1031 24.123 12.8701Z" fill="#F3AD39"/>
<path d="M20.778 8.26677C20.778 9.23877 21.501 9.80077 22.958 10.0928V6.61377C21.634 6.65277 20.778 7.43077 20.778 8.26677Z" fill="#F3AD39"/>
<path d="M23.5 0C17.021 0 11.75 5.272 11.75 11.75C11.75 18.226 17.021 23.498 23.5 23.498C29.979 23.498 35.25 18.226 35.25 11.75C35.25 5.272 29.979 0 23.5 0ZM24.123 18.699V19.902C24.123 20.233 23.869 20.563 23.537 20.563C23.209 20.563 22.958 20.233 22.958 19.902V18.699C19.675 18.619 18.042 16.657 18.042 15.122C18.042 14.347 18.511 13.899 19.245 13.899C21.421 13.899 19.729 16.58 22.958 16.715V12.655C20.078 12.132 18.334 10.869 18.334 8.713C18.334 6.072 20.53 4.71 22.958 4.634V3.598C22.958 3.267 23.209 2.937 23.537 2.937C23.869 2.937 24.123 3.267 24.123 3.598V4.634C25.637 4.674 28.746 5.624 28.746 7.529C28.746 8.286 28.18 8.732 27.519 8.732C26.255 8.732 26.273 6.655 24.123 6.615V10.306C26.687 10.851 28.958 11.608 28.958 14.6C28.958 17.202 27.016 18.522 24.123 18.699Z" fill="#F3AD39"/>
</svg>
