<svg width="63" height="63" viewBox="0 0 63 63" fill="none" xmlns="http://www.w3.org/2000/svg">
<g clip-path="url(#clip0_305_352)">
<path d="M53.8548 31.4999C53.8548 19.1732 43.8266 9.14502 31.5 9.14502C19.1733 9.14502 9.14514 19.1732 9.14514 31.4999C9.14514 43.8265 19.1733 53.8547 31.5 53.8547C43.8266 53.8547 53.8548 43.8265 53.8548 31.4999ZM31.501 51.8224C29.3763 51.8224 27.3288 51.4922 25.4032 50.8856V38.6128H23.3709V50.1143C22.304 49.6469 21.2848 49.0921 20.3226 48.455V38.6128C20.3226 35.8113 22.6017 33.5321 25.4032 33.5321H37.5968C40.3982 33.5321 42.6774 35.8113 42.6774 38.6128H36.1925L34.4407 35.1102L32.6228 36.0196L33.9204 38.6128H27.4355V40.645H29.4677V41.6611L30.2451 47.1736C30.4584 48.6653 31.755 49.7902 33.263 49.7902H40.3007C37.6333 51.0786 34.6561 51.8224 31.501 51.8224ZM23.3709 23.3708C23.3709 18.8887 27.0178 15.2418 31.5 15.2418C35.9821 15.2418 39.629 18.8887 39.629 23.3708C39.629 27.853 35.9821 31.4999 31.5 31.4999C27.0178 31.4999 23.3709 27.853 23.3709 23.3708ZM43.6935 41.589L42.9365 46.8861C42.8664 47.383 42.4335 47.7579 41.9316 47.7579H33.263C32.761 47.7579 32.3281 47.383 32.258 46.8861L31.5 41.589V40.645H34.9365L36.6883 44.1476L38.5062 43.2382L37.2086 40.645H43.6935V41.589ZM45.0277 46.6239L45.7166 41.8054L45.7207 40.645H47.758V38.6128H44.7097C44.7097 34.6915 41.518 31.4999 37.5968 31.4999H37.5703C40.0477 29.6454 41.6613 26.6966 41.6613 23.3708C41.6613 17.7679 37.1029 13.2095 31.5 13.2095C25.897 13.2095 21.3387 17.7679 21.3387 23.3708C21.3387 26.6966 22.9523 29.6454 25.4296 31.4999H25.4032C21.482 31.4999 18.2903 34.6915 18.2903 38.6128V46.9125C13.9443 43.1823 11.1774 37.6627 11.1774 31.4999C11.1774 20.294 20.2941 11.1773 31.5 11.1773C42.7059 11.1773 51.8226 20.294 51.8226 31.4999C51.8226 37.5082 49.1867 42.8998 45.0277 46.6239Z" fill="#F3AD39"/>
<path d="M57.897 30.6017L56.4511 29.6384L55.3242 31.3292L59.0655 33.8238L62.7033 30.1861L61.2665 28.7493L59.9171 30.0987C59.1834 15.059 46.7186 3.04834 31.5 3.04834V5.0806C45.7675 5.0806 57.4204 16.449 57.897 30.6017Z" fill="#F3AD39"/>
<path d="M5.10304 32.3984L6.549 33.3617L7.67588 31.6709L3.9345 29.1763L0.296753 32.814L1.73356 34.2508L3.08298 32.9014C3.81662 47.9411 16.2815 59.9518 31.5 59.9518V57.9195C17.2326 57.9195 5.57961 46.5511 5.10304 32.3984Z" fill="#F3AD39"/>
<path d="M8.12903 16.2581C12.6112 16.2581 16.2581 12.6112 16.2581 8.12903C16.2581 3.64689 12.6112 0 8.12903 0C3.64689 0 0 3.64689 0 8.12903C0 12.6112 3.64689 16.2581 8.12903 16.2581ZM8.12903 2.03226C11.4914 2.03226 14.2258 4.76666 14.2258 8.12903C14.2258 11.4914 11.4914 14.2258 8.12903 14.2258C4.76666 14.2258 2.03226 11.4914 2.03226 8.12903C2.03226 4.76666 4.76666 2.03226 8.12903 2.03226Z" fill="#F3AD39"/>
<path d="M7.11295 12.1417V13.2096H9.1452V12.1417C10.3036 11.9059 11.1775 10.8796 11.1775 9.65318C11.1775 8.25194 10.0384 7.11286 8.63714 7.11286H7.62101C7.34158 7.11286 7.11295 6.88423 7.11295 6.60479C7.11295 6.32536 7.34158 6.09673 7.62101 6.09673H8.63714C8.91658 6.09673 9.1452 6.32536 9.1452 6.60479V7.11286H11.1775V6.60479C11.1775 5.37731 10.3036 4.35203 9.1452 4.11629V3.04834H7.11295V4.11629C5.95456 4.35203 5.08069 5.37731 5.08069 6.60479C5.08069 8.00603 6.21977 9.14511 7.62101 9.14511H8.63714C8.91658 9.14511 9.1452 9.37374 9.1452 9.65318C9.1452 9.93261 8.91658 10.1612 8.63714 10.1612H7.62101C7.34158 10.1612 7.11295 9.93261 7.11295 9.65318V9.14511H5.08069V9.65318C5.08069 10.8807 5.95456 11.9059 7.11295 12.1417Z" fill="#F3AD39"/>
<path d="M54.871 46.7417C50.3888 46.7417 46.7419 50.3886 46.7419 54.8707C46.7419 59.3529 50.3888 62.9998 54.871 62.9998C59.3531 62.9998 63 59.3529 63 54.8707C63 50.3886 59.3531 46.7417 54.871 46.7417ZM54.871 60.9675C51.5086 60.9675 48.7742 58.2331 48.7742 54.8707C48.7742 51.5084 51.5086 48.774 54.871 48.774C58.2333 48.774 60.9678 51.5084 60.9678 54.8707C60.9678 58.2331 58.2333 60.9675 54.871 60.9675Z" fill="#F3AD39"/>
<path d="M55.8871 50.8585V49.7905H53.8549V50.8585C52.6965 51.0942 51.8226 52.1205 51.8226 53.347C51.8226 54.7482 52.9617 55.8873 54.363 55.8873H55.3791C55.6585 55.8873 55.8871 56.1159 55.8871 56.3954C55.8871 56.6748 55.6585 56.9034 55.3791 56.9034H54.363C54.0835 56.9034 53.8549 56.6748 53.8549 56.3954V55.8873H51.8226V56.3954C51.8226 57.6228 52.6965 58.6481 53.8549 58.8839V59.9518H55.8871V58.8839C57.0455 58.6481 57.9194 57.6218 57.9194 56.3954C57.9194 54.9941 56.7803 53.855 55.3791 53.855H54.363C54.0835 53.855 53.8549 53.6264 53.8549 53.347C53.8549 53.0675 54.0835 52.8389 54.363 52.8389H55.3791C55.6585 52.8389 55.8871 53.0675 55.8871 53.347V53.855H57.9194V53.347C57.9194 52.1195 57.0455 51.0942 55.8871 50.8585Z" fill="#F3AD39"/>
<path d="M6.09683 52.8389H4.06458V54.8711H6.09683V52.8389Z" fill="#F3AD39"/>
<path d="M3.64612 55.043L2.20911 53.606L0.772097 55.043L2.20911 56.48L3.64612 55.043Z" fill="#F3AD39"/>
<path d="M2.03226 56.9033H0V58.9356H2.03226V56.9033Z" fill="#F3AD39"/>
<path d="M0.772097 60.7939L2.20911 62.231L3.64612 60.7939L2.20911 59.3569L0.772097 60.7939Z" fill="#F3AD39"/>
<path d="M6.09683 60.9678H4.06458V63H6.09683V60.9678Z" fill="#F3AD39"/>
<path d="M6.51258 60.7944L7.94958 62.2314L9.38659 60.7944L7.94959 59.3574L6.51258 60.7944Z" fill="#F3AD39"/>
<path d="M10.1613 56.9033H8.12903V58.9356H10.1613V56.9033Z" fill="#F3AD39"/>
<path d="M9.38952 55.0435L7.95251 53.6064L6.5155 55.0435L7.95251 56.4805L9.38952 55.0435Z" fill="#F3AD39"/>
<path d="M58.9355 0H56.9032V2.03226H58.9355V0Z" fill="#F3AD39"/>
<path d="M56.481 2.20801L55.0439 0.770996L53.6069 2.20801L55.0439 3.64502L56.481 2.20801Z" fill="#F3AD39"/>
<path d="M54.871 4.06445H52.8387V6.09671H54.871V4.06445Z" fill="#F3AD39"/>
<path d="M53.6071 7.95606L55.0441 9.39307L56.4811 7.95606L55.0441 6.51905L53.6071 7.95606Z" fill="#F3AD39"/>
<path d="M58.9355 8.12891H56.9032V10.1612H58.9355V8.12891Z" fill="#F3AD39"/>
<path d="M60.7931 9.3916L62.2301 7.95459L60.7931 6.51758L59.3561 7.95459L60.7931 9.3916Z" fill="#F3AD39"/>
<path d="M63 4.06445H60.9678V6.09671H63V4.06445Z" fill="#F3AD39"/>
<path d="M62.2289 2.20703L60.7919 0.77002L59.3549 2.20703L60.7919 3.64404L62.2289 2.20703Z" fill="#F3AD39"/>
</g>
<defs>
<clipPath id="clip0_305_352">
<rect width="63" height="63" fill="white"/>
</clipPath>
</defs>
</svg>
