<svg width="1446" height="1442" viewBox="0 0 1446 1442" fill="none" xmlns="http://www.w3.org/2000/svg">
<path d="M-5.90385e-05 721C-5.0761e-05 626.317 18.6492 532.561 54.8828 445.085C91.1165 357.609 144.225 278.127 211.176 211.176C278.127 144.225 357.61 91.1165 445.085 54.8829C532.561 18.6492 626.317 4.66223e-05 721 5.90385e-05C815.683 7.14547e-05 909.439 18.6493 996.915 54.883C1084.39 91.1166 1163.87 144.225 1230.82 211.176C1297.78 278.127 1350.88 357.61 1387.12 445.085C1423.35 532.561 1442 626.317 1442 721L721 721L-5.90385e-05 721Z" fill="#F19725"/>
<mask id="path-2-inside-1_625_498" fill="white">
<path d="M3.99994 721C3.99995 626.317 22.6492 532.561 58.8828 445.085C95.1165 357.609 148.225 278.127 215.176 211.176C282.127 144.225 361.61 91.1165 449.085 54.8829C536.561 18.6492 630.317 4.66223e-05 725 5.90385e-05C819.683 7.14547e-05 913.439 18.6493 1000.91 54.883C1088.39 91.1166 1167.87 144.225 1234.82 211.176C1301.78 278.127 1354.88 357.61 1391.12 445.085C1427.35 532.561 1446 626.317 1446 721L1412.36 721C1412.36 630.735 1394.58 541.353 1360.04 457.959C1325.49 374.565 1274.86 298.791 1211.04 234.963C1147.21 171.136 1071.44 120.506 988.041 85.9625C904.647 51.4194 815.265 33.6403 725 33.6403C634.735 33.6403 545.353 51.4194 461.959 85.9624C378.565 120.505 302.791 171.136 238.963 234.963C175.136 298.79 124.505 374.564 89.9624 457.959C55.4193 541.353 37.6402 630.735 37.6402 721L3.99994 721Z"/>
</mask>
<path d="M3.99994 721C3.99995 626.317 22.6492 532.561 58.8828 445.085C95.1165 357.609 148.225 278.127 215.176 211.176C282.127 144.225 361.61 91.1165 449.085 54.8829C536.561 18.6492 630.317 4.66223e-05 725 5.90385e-05C819.683 7.14547e-05 913.439 18.6493 1000.91 54.883C1088.39 91.1166 1167.87 144.225 1234.82 211.176C1301.78 278.127 1354.88 357.61 1391.12 445.085C1427.35 532.561 1446 626.317 1446 721L1412.36 721C1412.36 630.735 1394.58 541.353 1360.04 457.959C1325.49 374.565 1274.86 298.791 1211.04 234.963C1147.21 171.136 1071.44 120.506 988.041 85.9625C904.647 51.4194 815.265 33.6403 725 33.6403C634.735 33.6403 545.353 51.4194 461.959 85.9624C378.565 120.505 302.791 171.136 238.963 234.963C175.136 298.79 124.505 374.564 89.9624 457.959C55.4193 541.353 37.6402 630.735 37.6402 721L3.99994 721Z" fill="white" stroke="#F3AD39" stroke-width="10" mask="url(#path-2-inside-1_625_498)"/>
</svg>
