<svg width="20" height="27" viewBox="0 0 20 27" fill="none" xmlns="http://www.w3.org/2000/svg">
<path d="M9.99996 0.666504C4.84529 0.666504 0.666626 4.84517 0.666626 9.99984C0.666626 15.2878 6.53863 23.0932 8.96796 26.0945C9.50129 26.7532 10.4986 26.7532 11.032 26.0945C13.4613 23.0932 19.3333 15.2878 19.3333 9.99984C19.3333 4.84517 15.1546 0.666504 9.99996 0.666504ZM9.99996 13.3332C8.15863 13.3332 6.66663 11.8412 6.66663 9.99984C6.66663 8.1585 8.15863 6.6665 9.99996 6.6665C11.8413 6.6665 13.3333 8.1585 13.3333 9.99984C13.3333 11.8412 11.8413 13.3332 9.99996 13.3332Z" fill="#232659"/>
</svg>
