<svg width="21" height="17" viewBox="0 0 21 17" fill="none" xmlns="http://www.w3.org/2000/svg">
<path d="M18.8334 0.166504H2.16671C1.02087 0.166504 0.0937907 1.104 0.0937907 2.24984L0.083374 14.7498C0.083374 15.8957 1.02087 16.8332 2.16671 16.8332H18.8334C19.9792 16.8332 20.9167 15.8957 20.9167 14.7498V2.24984C20.9167 1.104 19.9792 0.166504 18.8334 0.166504ZM18.4167 4.59359L11.0521 9.19775C10.7188 9.40609 10.2813 9.40609 9.94796 9.19775L2.58337 4.59359C2.32296 4.42692 2.16671 4.14567 2.16671 3.84359C2.16671 3.14567 2.92712 2.729 3.52087 3.09359L10.5 7.45817L17.4792 3.09359C18.073 2.729 18.8334 3.14567 18.8334 3.84359C18.8334 4.14567 18.6771 4.42692 18.4167 4.59359Z" fill="#232659"/>
</svg>
