<svg width="71" height="39" viewBox="0 0 71 39" fill="none" xmlns="http://www.w3.org/2000/svg">
<g clip-path="url(#clip0_304_306)">
<path d="M16.9432 19.625C15.507 19.625 14.1031 19.1961 12.909 18.3926C11.7149 17.5891 10.7842 16.4471 10.2346 15.1109C9.68496 13.7747 9.54116 12.3044 9.82134 10.8859C10.1015 9.46742 10.7931 8.16446 11.8086 7.14179C12.8241 6.11911 14.118 5.42267 15.5266 5.14051C16.9351 4.85836 18.3951 5.00317 19.722 5.55663C21.0488 6.1101 22.1829 7.04736 22.9808 8.2499C23.7787 9.45243 24.2045 10.8662 24.2045 12.3125C24.2086 13.2739 24.0236 14.2267 23.6601 15.1157C23.2966 16.0047 22.7619 16.8125 22.0868 17.4923C21.4117 18.1722 20.6096 18.7107 19.7268 19.0767C18.844 19.4427 17.8979 19.6291 16.9432 19.625ZM16.9432 24.5C17.6451 24.5 18.4439 24.5488 19.291 24.6219C17.8718 25.5217 16.6943 26.7595 15.8627 28.2261C15.0311 29.6928 14.5709 31.3431 14.5227 33.0313V39.125H0V33.0313C0 27.3519 11.3035 24.5 16.9432 24.5Z" fill="#F3AD39"/>
<path d="M54.0568 19.625C55.493 19.625 56.8969 19.1961 58.091 18.3926C59.2851 17.5891 60.2158 16.4471 60.7654 15.1109C61.315 13.7747 61.4588 12.3044 61.1787 10.8859C60.8985 9.46742 60.2069 8.16446 59.1914 7.14179C58.1759 6.11911 56.882 5.42267 55.4734 5.14051C54.0649 4.85836 52.6049 5.00317 51.278 5.55663C49.9512 6.1101 48.8171 7.04736 48.0192 8.2499C47.2213 9.45243 46.7955 10.8662 46.7955 12.3125C46.7914 13.2739 46.9764 14.2267 47.3399 15.1157C47.7034 16.0047 48.2381 16.8125 48.9132 17.4923C49.5883 18.1722 50.3904 18.7107 51.2732 19.0767C52.156 19.4427 53.1021 19.6291 54.0568 19.625ZM34.6932 19.625C36.1293 19.625 37.5333 19.1961 38.7274 18.3926C39.9215 17.5891 40.8522 16.4471 41.4018 15.1109C41.9514 13.7747 42.0952 12.3044 41.815 10.8859C41.5348 9.46742 40.8433 8.16446 39.8277 7.14179C38.8122 6.11911 37.5184 5.42267 36.1098 5.14051C34.7012 4.85836 33.2412 5.00317 31.9144 5.55663C30.5875 6.1101 29.4535 7.04736 28.6556 8.2499C27.8577 9.45243 27.4318 10.8662 27.4318 12.3125C27.4278 13.2739 27.6128 14.2267 27.9763 15.1157C28.3398 16.0047 28.8745 16.8125 29.5496 17.4923C30.2247 18.1722 31.0268 18.7107 31.9096 19.0767C32.7924 19.4427 33.7385 19.6291 34.6932 19.625ZM34.6932 24.5C29.0535 24.5 17.75 27.3519 17.75 33.0313V39.125H51.6364V33.0313C51.6364 27.3519 40.3328 24.5 34.6932 24.5ZM54.0568 24.5C53.3549 24.5 52.5561 24.5488 51.709 24.6219C53.1282 25.5217 54.3057 26.7595 55.1373 28.2261C55.9689 29.6928 56.4291 31.3431 56.4773 33.0313V39.125H71V33.0313C71 27.3519 59.6965 24.5 54.0568 24.5Z" fill="#F3AD39"/>
</g>
<defs>
<clipPath id="clip0_304_306">
<rect width="71" height="39" fill="white"/>
</clipPath>
</defs>
</svg>
