<svg width="20" height="27" viewBox="0 0 20 27" fill="none" xmlns="http://www.w3.org/2000/svg">
<path d="M10.0001 0.666656C4.84541 0.666656 0.666748 4.84532 0.666748 9.99999C0.666748 15.288 6.53875 23.0933 8.96808 26.0947C9.50141 26.7533 10.4987 26.7533 11.0321 26.0947C13.4614 23.0933 19.3334 15.288 19.3334 9.99999C19.3334 4.84532 15.1547 0.666656 10.0001 0.666656ZM10.0001 13.3333C8.15875 13.3333 6.66675 11.8413 6.66675 9.99999C6.66675 8.15866 8.15875 6.66666 10.0001 6.66666C11.8414 6.66666 13.3334 8.15866 13.3334 9.99999C13.3334 11.8413 11.8414 13.3333 10.0001 13.3333Z" fill="#F3AD39"/>
</svg>
